<svg width="18" height="15" viewBox="0 0 18 15" fill="none" xmlns="http://www.w3.org/2000/svg">
<path d="M8.39844 1.40625L8.08594 1.67969C7.92969 1.875 7.92969 2.14844 8.08594 2.34375L12.6172 6.83594H0.46875C0.195312 6.83594 0 7.07031 0 7.30469V7.69531C0 7.96875 0.195312 8.16406 0.46875 8.16406H12.6172L8.125 12.6953C7.92969 12.8906 7.92969 13.1641 8.125 13.3594L8.39844 13.6328C8.55469 13.8281 8.86719 13.8281 9.0625 13.6328L14.8438 7.85156C15.0391 7.65625 15.0391 7.38281 14.8438 7.1875L9.0625 1.40625C8.86719 1.21094 8.55469 1.21094 8.39844 1.40625ZM17.5 0.46875C17.5 0.234375 17.2656 0 17.0312 0H16.7188C16.4453 0 16.25 0.234375 16.25 0.46875V14.5312C16.25 14.8047 16.4453 15 16.7188 15H17.0312C17.2656 15 17.5 14.8047 17.5 14.5312V0.46875Z" fill="#CDCDCD"/>
<path d="M8.39844 1.40625L8.48075 1.50032L8.48911 1.49301L8.49605 1.48434L8.39844 1.40625ZM8.08594 1.67969L8.00362 1.58562L7.99527 1.59293L7.98833 1.6016L8.08594 1.67969ZM8.08594 2.34375L7.98833 2.42184L7.99282 2.42745L7.99793 2.43252L8.08594 2.34375ZM12.6172 6.83594V6.96094H12.9208L12.7052 6.74717L12.6172 6.83594ZM12.6172 8.16406L12.706 8.25207L12.9171 8.03906H12.6172V8.16406ZM8.125 12.6953L8.21339 12.7837L8.21377 12.7833L8.125 12.6953ZM8.39844 13.6328L8.49665 13.5542L8.48683 13.5444L8.39844 13.6328ZM8.31612 1.31218L8.00362 1.58562L8.16825 1.77376L8.48075 1.50032L8.31612 1.31218ZM7.98833 1.6016C7.79556 1.84257 7.79556 2.18087 7.98833 2.42184L8.18355 2.26566C8.06382 2.116 8.06382 1.90743 8.18355 1.75777L7.98833 1.6016ZM7.99793 2.43252L12.5292 6.92471L12.7052 6.74717L8.17394 2.25498L7.99793 2.43252ZM12.6172 6.71094H0.46875V6.96094H12.6172V6.71094ZM0.46875 6.71094C0.119641 6.71094 -0.125 7.0081 -0.125 7.30469H0.125C0.125 7.13252 0.270984 6.96094 0.46875 6.96094V6.71094ZM-0.125 7.30469V7.69531H0.125V7.30469H-0.125ZM-0.125 7.69531C-0.125 8.03779 0.126277 8.28906 0.46875 8.28906V8.03906C0.264348 8.03906 0.125 7.89971 0.125 7.69531H-0.125ZM0.46875 8.28906H12.6172V8.03906H0.46875V8.28906ZM12.5284 8.07606L8.03623 12.6073L8.21377 12.7833L12.706 8.25207L12.5284 8.07606ZM8.03661 12.6069C7.91778 12.7258 7.85352 12.8739 7.85352 13.0273C7.85352 13.1808 7.91778 13.3289 8.03661 13.4478L8.21339 13.271C8.1369 13.1945 8.10352 13.1083 8.10352 13.0273C8.10352 12.9464 8.1369 12.8602 8.21339 12.7837L8.03661 12.6069ZM8.03661 13.4478L8.31005 13.7212L8.48683 13.5444L8.21339 13.271L8.03661 13.4478ZM8.30083 13.7109C8.51204 13.9749 8.91291 13.9592 9.15089 13.7212L8.97411 13.5444C8.82147 13.6971 8.59734 13.6813 8.49605 13.5547L8.30083 13.7109ZM9.15089 13.7212L14.9321 7.93995L14.7554 7.76317L8.97411 13.5444L9.15089 13.7212ZM14.9321 7.93995C15.051 7.82112 15.1152 7.67295 15.1152 7.51953C15.1152 7.36611 15.051 7.21794 14.9321 7.09911L14.7554 7.27589C14.8318 7.35237 14.8652 7.43857 14.8652 7.51953C14.8652 7.60049 14.8318 7.68669 14.7554 7.76317L14.9321 7.93995ZM14.9321 7.09911L9.15089 1.31786L8.97411 1.49464L14.7554 7.27589L14.9321 7.09911ZM9.15089 1.31786C8.91291 1.07988 8.51204 1.06415 8.30083 1.32816L8.49605 1.48434C8.59734 1.35772 8.82147 1.34199 8.97411 1.49464L9.15089 1.31786ZM17.625 0.46875C17.625 0.310909 17.5473 0.16353 17.4419 0.0580959C17.3365 -0.0473378 17.1891 -0.125 17.0312 -0.125V0.125C17.1078 0.125 17.1948 0.164525 17.2651 0.234873C17.3355 0.30522 17.375 0.392216 17.375 0.46875H17.625ZM17.0312 -0.125H16.7188V0.125H17.0312V-0.125ZM16.7188 -0.125C16.3696 -0.125 16.125 0.172167 16.125 0.46875H16.375C16.375 0.296583 16.521 0.125 16.7188 0.125V-0.125ZM16.125 0.46875V14.5312H16.375V0.46875H16.125ZM16.125 14.5312C16.125 14.8737 16.3763 15.125 16.7188 15.125V14.875C16.5143 14.875 16.375 14.7357 16.375 14.5312H16.125ZM16.7188 15.125H17.0312V14.875H16.7188V15.125ZM17.0312 15.125C17.3278 15.125 17.625 14.8804 17.625 14.5312H17.375C17.375 14.729 17.2034 14.875 17.0312 14.875V15.125ZM17.625 14.5312V0.46875H17.375V14.5312H17.625Z" fill="#CDCDCD"/>
</svg>
